<svg id="svg" version="1.1" xmlns="http://www.w3.org/2000/svg" xmlns:xlink="http://www.w3.org/1999/xlink" width="400" height="400" viewBox="0, 0, 400,400"><g id="svgg"><path id="path0" d="M131.400 137.037 C 117.839 140.072,109.882 156.985,114.328 173.320 C 120.821 197.175,154.314 197.189,158.187 173.338 L 158.457 171.677 154.929 171.428 C 152.988 171.292,150.297 171.083,148.949 170.963 L 146.499 170.747 146.218 172.273 C 143.965 184.508,129.949 184.280,127.590 171.971 C 126.965 168.708,127.059 159.023,127.749 155.717 C 130.446 142.781,143.794 142.942,145.441 155.930 L 145.711 158.060 147.555 157.843 C 148.570 157.724,151.425 157.511,153.900 157.370 C 159.098 157.073,158.832 157.418,157.591 152.564 C 154.417 140.153,144.292 134.150,131.400 137.037 M224.127 137.001 C 200.105 142.223,200.709 186.737,224.857 190.810 C 239.793 193.329,250.613 183.214,251.481 165.919 C 252.469 146.231,240.394 133.465,224.127 137.001 M47.200 163.800 L 47.200 190.400 52.400 190.400 L 57.600 190.400 57.627 168.900 C 57.644 155.209,57.790 147.691,58.029 148.200 C 58.235 148.640,60.663 156.560,63.425 165.800 C 66.187 175.040,68.984 184.355,69.641 186.500 L 70.834 190.400 75.003 190.400 L 79.172 190.400 80.327 186.700 C 80.962 184.665,83.879 175.170,86.808 165.600 C 89.737 156.030,92.284 148.029,92.467 147.820 C 92.650 147.611,92.800 157.106,92.800 168.920 L 92.800 190.400 99.000 190.400 L 105.200 190.400 105.200 163.800 L 105.200 137.200 95.486 137.200 L 85.772 137.200 81.032 152.700 C 78.425 161.225,76.176 168.331,76.035 168.491 C 75.894 168.651,73.719 161.676,71.202 152.991 L 66.627 137.200 56.913 137.200 L 47.200 137.200 47.200 163.800 M165.200 163.800 L 165.200 190.400 171.600 190.400 L 178.000 190.400 178.000 180.000 L 178.000 169.600 188.000 169.600 L 198.000 169.600 198.000 164.600 L 198.000 159.600 188.000 159.600 L 178.000 159.600 178.000 153.600 L 178.000 147.600 190.600 147.600 L 203.200 147.600 203.200 142.400 L 203.200 137.200 184.200 137.200 L 165.200 137.200 165.200 163.800 M259.600 163.800 L 259.600 190.400 265.800 190.400 L 272.000 190.400 272.000 180.187 L 272.000 169.975 276.670 170.087 L 281.341 170.200 285.334 180.300 L 289.328 190.400 296.064 190.400 C 299.769 190.400,302.800 190.301,302.800 190.181 C 302.800 190.060,300.640 184.901,297.999 178.715 C 295.358 172.530,293.243 167.442,293.299 167.410 C 302.116 162.306,304.748 154.378,300.503 145.710 C 296.903 138.357,293.260 137.235,272.900 137.214 L 259.600 137.200 259.600 163.800 M311.600 163.836 L 311.600 190.471 323.500 190.308 C 336.482 190.129,338.360 189.837,342.800 187.302 C 358.451 178.367,359.539 152.282,344.715 141.369 C 340.206 138.050,335.395 137.200,321.110 137.200 L 311.600 137.200 311.600 163.836 M232.675 147.178 C 240.983 150.950,240.983 176.650,232.675 180.422 C 224.740 184.024,219.492 177.408,219.492 163.800 C 219.492 150.225,224.759 143.584,232.675 147.178 M286.647 147.825 C 290.648 150.816,290.423 156.915,286.218 159.462 C 285.196 160.081,283.953 160.222,278.500 160.334 L 272.000 160.469 272.000 153.608 L 272.000 146.747 278.772 146.874 C 284.875 146.988,285.653 147.082,286.647 147.825 M333.565 147.827 C 344.497 151.073,345.609 173.250,335.129 179.012 C 333.203 180.071,332.570 180.197,328.500 180.334 L 324.000 180.486 324.000 163.843 L 324.000 147.200 327.727 147.200 C 329.947 147.200,332.309 147.454,333.565 147.827 M57.214 216.300 C 57.232 239.945,57.666 242.533,62.348 246.913 C 69.866 253.945,87.932 253.617,95.244 246.315 C 99.147 242.417,99.583 239.307,99.593 215.300 L 99.600 198.000 94.200 198.000 L 88.800 198.000 88.791 217.100 C 88.781 238.247,88.760 238.437,86.147 240.294 C 82.901 242.601,76.775 242.593,73.453 240.278 C 70.842 238.458,70.819 238.249,70.809 217.100 L 70.800 198.000 64.000 198.000 L 57.200 198.000 57.214 216.300 M109.200 224.561 L 109.200 251.200 115.600 251.200 L 122.000 251.200 122.000 241.200 L 122.000 231.200 128.100 231.192 C 135.539 231.182,138.998 230.718,141.650 229.375 C 152.244 224.006,153.444 207.835,143.743 201.161 C 139.835 198.472,138.551 198.281,123.100 198.092 L 109.200 197.922 109.200 224.561 M172.000 203.200 L 172.000 208.400 178.600 208.400 L 185.200 208.400 185.200 229.800 L 185.200 251.200 191.400 251.200 L 197.600 251.200 197.600 229.800 L 197.600 208.400 204.200 208.400 L 210.800 208.400 210.800 203.200 L 210.800 198.000 191.400 198.000 L 172.000 198.000 172.000 203.200 M216.000 224.600 L 216.000 251.200 222.200 251.200 L 228.400 251.200 228.400 224.600 L 228.400 198.000 222.200 198.000 L 216.000 198.000 216.000 224.600 M239.200 224.600 L 239.200 251.200 244.400 251.200 L 249.600 251.200 249.627 229.700 C 249.644 216.009,249.790 208.491,250.029 209.000 C 250.235 209.440,252.663 217.360,255.425 226.600 C 258.187 235.840,260.984 245.155,261.641 247.300 L 262.834 251.200 267.003 251.200 L 271.172 251.200 272.327 247.500 C 272.962 245.465,275.879 235.970,278.808 226.400 C 281.737 216.830,284.284 208.829,284.467 208.620 C 284.650 208.411,284.800 217.906,284.800 229.720 L 284.800 251.200 291.000 251.200 L 297.200 251.200 297.200 224.600 L 297.200 198.000 287.486 198.000 L 277.772 198.000 273.032 213.500 C 270.425 222.025,268.176 229.131,268.035 229.291 C 267.894 229.451,265.719 222.476,263.202 213.791 L 258.627 198.000 248.913 198.000 L 239.200 198.000 239.200 224.600 M307.600 224.600 L 307.600 251.200 326.600 251.200 L 345.600 251.200 345.600 246.000 L 345.600 240.800 333.000 240.800 L 320.400 240.800 320.400 235.000 L 320.400 229.200 330.200 229.200 L 340.000 229.200 340.000 224.200 L 340.000 219.200 330.200 219.200 L 320.400 219.200 320.400 213.800 L 320.400 208.400 333.000 208.400 L 345.600 208.400 345.600 203.200 L 345.600 198.000 326.600 198.000 L 307.600 198.000 307.600 224.600 M133.240 208.054 C 137.947 209.624,139.474 215.523,136.131 219.223 C 134.303 221.247,132.921 221.595,126.700 221.598 L 121.600 221.600 121.600 214.600 L 121.600 207.600 126.740 207.600 C 129.567 207.600,132.492 207.804,133.240 208.054 " stroke="none" fill="#0b9aba" fill-rule="evenodd"></path><path id="path1" d="M182.400 1.240 C 59.843 11.898,-23.582 129.444,6.277 249.400 C 31.577 351.047,131.425 415.637,234.400 396.972 C 347.232 376.519,419.290 263.755,391.323 151.400 C 367.855 57.114,278.490 -7.115,182.400 1.240 M143.508 137.003 C 151.765 138.950,156.672 145.107,158.547 155.872 C 158.821 157.446,158.746 157.465,150.900 157.834 L 145.200 158.103 145.200 156.524 C 145.200 145.375,132.290 142.718,128.630 153.113 C 126.531 159.072,126.899 171.986,129.300 176.600 C 133.010 183.732,143.471 181.880,145.582 173.717 C 145.855 172.663,146.145 171.575,146.227 171.300 C 146.390 170.750,148.895 170.705,155.000 171.142 L 158.600 171.400 158.461 172.800 C 157.596 181.533,150.681 189.149,142.103 190.817 C 125.297 194.085,113.192 182.734,113.203 163.717 C 113.213 144.480,126.299 132.946,143.508 137.003 M237.248 137.547 C 256.875 145.154,256.549 183.443,236.800 190.169 C 231.709 191.903,223.637 191.430,219.066 189.129 C 202.520 180.801,202.034 147.555,218.332 138.868 C 223.380 136.178,232.137 135.567,237.248 137.547 M71.345 152.672 C 73.790 161.071,75.882 167.852,75.995 167.741 C 76.108 167.630,78.286 160.757,80.835 152.469 L 85.471 137.400 95.335 137.293 L 105.200 137.186 105.200 163.793 L 105.200 190.400 98.804 190.400 L 92.407 190.400 92.304 169.604 L 92.200 148.808 85.814 169.604 L 79.428 190.400 74.989 190.400 L 70.550 190.400 64.375 169.781 L 58.200 149.162 58.096 169.781 L 57.993 190.400 52.596 190.400 L 47.200 190.400 47.200 163.793 L 47.200 137.186 57.050 137.293 L 66.901 137.400 71.345 152.672 M203.200 142.400 L 203.200 147.600 190.800 147.600 L 178.400 147.600 178.400 153.600 L 178.400 159.600 188.200 159.600 L 198.000 159.600 198.000 164.600 L 198.000 169.600 188.200 169.600 L 178.400 169.600 178.400 180.000 L 178.400 190.400 171.800 190.400 L 165.200 190.400 165.200 163.800 L 165.200 137.200 184.200 137.200 L 203.200 137.200 203.200 142.400 M290.713 137.804 C 303.588 140.840,307.033 158.801,296.098 165.883 C 294.834 166.701,293.732 167.415,293.649 167.470 C 293.566 167.524,295.436 172.121,297.804 177.684 C 300.172 183.248,302.357 188.385,302.660 189.100 L 303.211 190.400 296.105 190.390 L 289.000 190.381 285.019 180.190 L 281.039 170.000 276.719 170.000 L 272.400 170.000 272.400 180.200 L 272.400 190.400 266.000 190.400 L 259.600 190.400 259.600 163.800 L 259.600 137.200 273.900 137.206 C 285.115 137.211,288.742 137.340,290.713 137.804 M336.665 137.797 C 361.227 142.477,361.777 183.365,337.362 189.610 C 334.642 190.305,332.916 190.400,322.936 190.400 L 311.600 190.400 311.600 163.800 L 311.600 137.200 322.565 137.200 C 330.623 137.200,334.361 137.358,336.665 137.797 M227.600 146.796 C 222.468 147.753,220.128 152.211,219.725 161.800 C 219.197 174.314,222.429 180.880,229.114 180.880 C 235.693 180.880,238.200 176.167,238.200 163.800 C 238.200 150.810,234.854 145.442,227.600 146.796 M272.400 153.661 L 272.400 160.521 278.335 160.293 C 286.354 159.985,288.293 159.020,289.230 154.869 C 290.535 149.082,287.042 146.873,276.500 146.821 L 272.400 146.800 272.400 153.661 M324.000 163.800 L 324.000 180.521 328.190 180.283 C 338.318 179.710,343.793 171.821,342.022 160.355 C 340.674 151.628,336.595 147.808,328.100 147.317 L 324.000 147.079 324.000 163.800 M70.817 216.100 C 70.835 234.831,70.974 236.964,72.290 238.743 C 75.270 242.774,84.408 242.763,87.339 238.725 C 88.607 236.977,88.751 234.689,88.776 215.900 L 88.800 198.000 94.200 198.000 L 99.600 198.000 99.597 216.900 C 99.594 236.444,99.402 239.453,97.938 242.854 C 92.771 254.866,65.895 255.462,59.497 243.708 C 57.334 239.734,57.212 238.328,57.206 217.300 L 57.200 198.000 64.000 198.000 L 70.800 198.000 70.817 216.100 M138.425 198.633 C 153.124 201.976,155.030 223.214,141.219 229.759 L 138.600 231.000 130.300 231.135 L 122.000 231.270 122.000 241.235 L 122.000 251.200 115.600 251.200 L 109.200 251.200 109.200 224.600 L 109.200 198.000 122.421 198.000 C 133.039 198.000,136.190 198.125,138.425 198.633 M211.200 203.200 L 211.200 208.400 204.600 208.400 L 198.000 208.400 198.000 229.800 L 198.000 251.200 191.600 251.200 L 185.200 251.200 185.200 229.800 L 185.200 208.400 178.600 208.400 L 172.000 208.400 172.000 203.200 L 172.000 198.000 191.600 198.000 L 211.200 198.000 211.200 203.200 M228.800 224.600 L 228.800 251.200 222.400 251.200 L 216.000 251.200 216.000 224.600 L 216.000 198.000 222.400 198.000 L 228.800 198.000 228.800 224.600 M263.345 213.472 C 265.790 221.871,267.882 228.652,267.995 228.541 C 268.108 228.430,270.286 221.557,272.835 213.269 L 277.471 198.200 287.335 198.093 L 297.200 197.986 297.200 224.593 L 297.200 251.200 290.804 251.200 L 284.407 251.200 284.304 230.404 L 284.200 209.608 277.814 230.404 L 271.428 251.200 266.989 251.200 L 262.550 251.200 256.375 230.581 L 250.200 209.962 250.096 230.581 L 249.993 251.200 244.596 251.200 L 239.200 251.200 239.200 224.593 L 239.200 197.986 249.050 198.093 L 258.901 198.200 263.345 213.472 M345.600 203.200 L 345.600 208.400 333.000 208.400 L 320.400 208.400 320.400 213.800 L 320.400 219.200 330.400 219.200 L 340.400 219.200 340.400 224.200 L 340.400 229.200 330.400 229.200 L 320.400 229.200 320.400 235.000 L 320.400 240.800 333.000 240.800 L 345.600 240.800 345.600 246.000 L 345.600 251.200 326.600 251.200 L 307.600 251.200 307.600 224.600 L 307.600 198.000 326.600 198.000 L 345.600 198.000 345.600 203.200 M121.600 214.600 L 121.600 221.712 127.168 221.512 C 135.156 221.224,137.577 219.618,137.593 214.594 C 137.610 209.608,135.141 207.975,127.152 207.688 L 121.600 207.488 121.600 214.600 " stroke="none" fill="#041414" fill-rule="evenodd"></path><path id="path2" d="M57.786 169.200 C 57.786 180.970,57.837 185.785,57.900 179.900 C 57.962 174.015,57.962 164.385,57.900 158.500 C 57.837 152.615,57.786 157.430,57.786 169.200 M238.524 163.800 C 238.526 165.120,238.601 165.612,238.690 164.893 C 238.779 164.174,238.777 163.094,238.686 162.493 C 238.595 161.892,238.522 162.480,238.524 163.800 M210.957 203.200 C 210.957 206.170,211.020 207.385,211.097 205.900 C 211.174 204.415,211.174 201.985,211.097 200.500 C 211.020 199.015,210.957 200.230,210.957 203.200 M228.589 224.600 C 228.589 239.340,228.639 245.312,228.700 237.871 C 228.761 230.430,228.761 218.370,228.700 211.071 C 228.639 203.772,228.589 209.860,228.589 224.600 M249.786 230.000 C 249.786 241.770,249.837 246.585,249.900 240.700 C 249.962 234.815,249.962 225.185,249.900 219.300 C 249.837 213.415,249.786 218.230,249.786 230.000 " stroke="none" fill="#045461" fill-rule="evenodd"></path><path id="path3" d="M272.165 153.600 C 272.165 157.450,272.225 159.025,272.298 157.100 C 272.371 155.175,272.371 152.025,272.298 150.100 C 272.225 148.175,272.165 149.750,272.165 153.600 M92.324 147.900 C 92.256 148.065,92.292 157.740,92.405 169.400 L 92.611 190.600 92.705 169.100 C 92.791 149.693,92.740 146.889,92.324 147.900 M178.161 153.600 C 178.161 157.010,178.222 158.405,178.297 156.700 C 178.372 154.995,178.372 152.205,178.297 150.500 C 178.222 148.795,178.161 150.190,178.161 153.600 M219.324 163.800 C 219.326 165.120,219.401 165.612,219.490 164.893 C 219.579 164.174,219.577 163.094,219.486 162.493 C 219.395 161.892,219.322 162.480,219.324 163.800 M178.175 180.000 C 178.175 185.830,178.231 188.215,178.299 185.300 C 178.367 182.385,178.367 177.615,178.299 174.700 C 178.231 171.785,178.175 174.170,178.175 180.000 M272.174 180.200 C 272.175 185.920,272.231 188.204,272.299 185.276 C 272.368 182.348,272.367 177.668,272.299 174.876 C 272.230 172.084,272.174 174.480,272.174 180.200 M213.200 184.525 C 213.200 184.594,213.785 185.179,214.500 185.825 L 215.800 187.000 214.625 185.700 C 213.530 184.488,213.200 184.216,213.200 184.525 M197.786 229.800 C 197.787 241.680,197.838 246.482,197.900 240.472 C 197.962 234.461,197.962 224.741,197.900 218.872 C 197.837 213.002,197.786 217.920,197.786 229.800 M284.324 208.700 C 284.256 208.865,284.292 218.540,284.405 230.200 L 284.611 251.400 284.705 229.900 C 284.791 210.493,284.740 207.689,284.324 208.700 M340.155 224.200 C 340.156 227.060,340.220 228.178,340.297 226.683 C 340.374 225.189,340.374 222.849,340.296 221.483 C 340.218 220.118,340.155 221.340,340.155 224.200 " stroke="none" fill="#045c6e" fill-rule="evenodd"></path><path id="path4" d="M355.301 163.800 C 355.305 164.680,355.387 164.993,355.483 164.495 C 355.579 163.998,355.575 163.278,355.475 162.895 C 355.375 162.513,355.296 162.920,355.301 163.800 M243.775 185.700 L 242.600 187.000 243.900 185.825 C 244.615 185.179,245.200 184.594,245.200 184.525 C 245.200 184.216,244.870 184.488,243.775 185.700 " stroke="none" fill="#044450" fill-rule="evenodd"></path></g></svg>